<?xml version="1.0" encoding="utf-8"?>
<!-- Generator: Adobe Illustrator 25.1.0, SVG Export Plug-In . SVG Version: 6.00 Build 0)  -->
<svg version="1.1" id="Capa_1" xmlns="http://www.w3.org/2000/svg" xmlns:xlink="http://www.w3.org/1999/xlink" x="0px" y="0px"
	 viewBox="0 0 841.89 595.28" style="enable-background:new 0 0 841.89 595.28;" xml:space="preserve">
<g>
	<g>
		<path d="M32.94,77.18c21.59-5.29,43.55-8.94,65.7-10.82c10.97-0.93,21.98-1.44,32.98-1.52c10.7-0.08,21.73-0.23,32.37,1.01
			c2.26,0.26,4.89,0.74,6.34,2.66c1.5,1.98,1.01,4.56,0.27,6.75c-1.55,4.61-4.74,8.86-7.37,12.91c-5.63,8.65-11.76,16.95-18,25.17
			c-12.6,16.59-25.57,32.92-36.07,50.96c-10.23,17.58-18.41,36.38-24.32,55.85c-1.49,4.91-2.85,9.86-4.03,14.86
			c-0.94,3.97-1.82,8.36-0.33,12.3c3.25,8.57,13.84,7.4,21.21,7.31c44.26-0.5,88.55-1.36,132.79,0.4
			c22.03,0.88,44.04,2.41,65.95,4.97c22.1,2.58,44.48,5.87,66.06,11.4c2.19,0.56,4.72,1.26,5.87,3.42c1.16,2.17,0.49,4.97-0.25,7.15
			c-1.53,4.45-4.38,8.55-6.82,12.54c-5.08,8.31-10.49,16.41-15.87,24.53c-10.57,15.98-21.03,32.16-28.3,49.96
			c-1.82,4.45-3.44,9-4.75,13.63c-1.14,4.05-2.05,8.58-0.68,12.69c2.76,8.25,12.18,9.24,19.55,10.18
			c21.99,2.8,43.98,5.56,65.96,8.47c44.12,5.84,88.18,12.34,131.81,21.16c21.9,4.43,43.7,9.42,65.27,15.25
			c3.89,1.05,8.48,2.15,11.26,5.31c3.75,4.27,1.36,10.57,0,15.33c-3.11,10.84-6.21,21.68-9.32,32.52
			c-3.11,10.84-6.21,21.68-9.32,32.52c-1.19,4.16-3.11,8.86-2.09,13.25c0.87,3.75,3.85,5.98,7.36,7.13
			c4.83,1.58,10.12,2.21,15.11,3.12c5.5,1,11.01,1.91,16.54,2.72c10.85,1.6,21.76,2.86,32.69,3.76c10.93,0.9,21.88,1.42,32.84,1.61
			c3.22,0.06,3.22-4.94,0-5c-22.56-0.39-45.09-2.24-67.39-5.67c-5.52-0.85-11.03-1.79-16.52-2.83c-2.75-0.52-5.49-1.05-8.22-1.62
			c-2.07-0.43-4.8-0.77-6.36-2.33c-3.44-3.42,0.48-11.5,1.58-15.32c1.55-5.42,3.11-10.84,4.66-16.26
			c3.11-10.84,6.21-21.68,9.32-32.52c1.55-5.39,3.13-10.78,4.63-16.19c1.22-4.38,2.27-9.17,0.6-13.58
			c-3.02-7.97-12.45-9.84-19.75-11.77c-10.7-2.83-21.45-5.47-32.24-7.94c-43.38-9.95-87.33-17.19-131.38-23.41
			c-21.75-3.07-43.54-5.9-65.33-8.68c-11.2-1.43-22.41-2.8-33.61-4.27c-3.99-0.53-9.24-1.07-11.85-4.54
			c-3.07-4.09-0.85-10.09,0.5-14.43c5.81-18.62,15.92-35.49,26.5-51.75c5.31-8.17,10.79-16.23,16.05-24.43
			c2.62-4.09,5.19-8.21,7.66-12.4c2.27-3.85,4.67-7.82,5.48-12.28c0.65-3.57,0.14-7.42-2.47-10.13c-3.1-3.22-7.97-3.88-12.11-4.81
			c-10.75-2.41-21.58-4.49-32.45-6.27c-21.54-3.52-43.25-5.9-65.01-7.46c-44.36-3.18-88.87-2.99-133.31-2.48
			c-11.06,0.13-22.12,0.27-33.18,0.4c-4,0.04-10.13,0.94-13.05-2.5c-3.13-3.69-0.66-10.15,0.39-14.26
			c5.15-20.27,12.77-39.88,22.66-58.31c9.79-18.23,22.07-34.75,34.62-51.13c6.28-8.19,12.56-16.39,18.46-24.86
			c2.95-4.23,5.8-8.52,8.51-12.91c2.28-3.7,4.7-7.56,5.39-11.93c0.59-3.7-0.39-7.4-3.31-9.86c-2.96-2.49-7.02-2.92-10.73-3.19
			c-11.18-0.8-22.44-0.99-33.64-0.82c-21.82,0.33-43.6,2.33-65.12,5.93c-10.65,1.78-21.23,3.98-31.72,6.55
			C28.49,73.12,29.81,77.94,32.94,77.18L32.94,77.18z"/>
	</g>
</g>
</svg>
